<svg width="512" height="512" viewBox="0 0 512 512" fill="none" xmlns="http://www.w3.org/2000/svg">
  <rect width="512" height="512" rx="100" fill="#0f172a"/>
  <path d="M176 160C176 115.817 211.817 80 256 80C300.183 80 336 115.817 336 160V224C336 268.183 300.183 304 256 304C211.817 304 176 268.183 176 224V160Z" stroke="white" stroke-width="24" stroke-linecap="round" stroke-linejoin="round"/>
  <circle cx="224" cy="176" r="12" fill="white"/>
  <circle cx="288" cy="176" r="12" fill="white"/>
  <path d="M128 128V96C128 78.3269 142.327 64 160 64H192" stroke="#38bdf8" stroke-width="24" stroke-linecap="round" stroke-linejoin="round"/>
  <path d="M384 128V96C384 78.3269 369.673 64 352 64H320" stroke="#38bdf8" stroke-width="24" stroke-linecap="round" stroke-linejoin="round"/>
  <path d="M128 384V416C128 433.673 142.327 448 160 448H192" stroke="#38bdf8" stroke-width="24" stroke-linecap="round" stroke-linejoin="round"/>
  <path d="M384 384V416C384 433.673 369.673 448 352 448H320" stroke="#38bdf8" stroke-width="24" stroke-linecap="round" stroke-linejoin="round"/>
  <line x1="96" y1="256" x2="416" y2="256" stroke="#38bdf8" stroke-width="16" stroke-opacity="0.8"/>
  <rect x="96" y="248" width="320" height="16" fill="#38bdf8" fill-opacity="0.2"/>
</svg>
